<?xml version="1.0" encoding="utf-8"?>
<svg viewBox="0 0 500 500" xmlns="http://www.w3.org/2000/svg">
  <path d="M 472.39 249.075 L 453.392 236.887 C 453.263 234.947 453.106 233.022 452.878 231.187 L 469.186 215.446 C 472.676 211.967 471.49 205.866 467.016 204.119 L 446.16 196.078 C 445.644 194.168 445.129 192.304 444.544 190.45 L 457.48 171.792 C 460.395 167.706 458.095 162.004 453.248 161.144 L 431.277 157.43 C 430.462 155.724 429.563 154.038 428.691 152.333 L 437.909 131.365 C 438.884 129.222 438.653 126.746 437.395 124.807 C 436.125 122.866 433.964 121.729 431.736 121.802 L 409.394 122.643 C 408.263 121.088 407.092 119.622 405.893 118.157 L 411.039 95.708 C 412.139 90.779 407.907 86.394 403.146 87.535 L 381.475 92.868 C 380.061 91.623 378.661 90.393 377.144 89.238 L 377.96 66.093 C 378.19 61.072 373.114 57.549 368.741 59.697 L 348.499 69.248 C 346.856 68.344 345.224 67.41 343.512 66.565 L 339.922 43.808 C 339.11 38.877 333.591 36.478 329.645 39.424 L 311.635 52.825 C 309.849 52.219 308.049 51.684 306.275 51.153 L 298.441 29.635 C 296.741 24.913 290.851 23.696 287.577 27.312 L 272.382 44.295 C 270.537 44.059 268.664 43.822 266.793 43.688 L 255.113 24.082 C 252.585 19.773 246.553 19.773 244.021 24.082 L 232.259 43.688 C 230.384 43.822 228.542 44.059 226.755 44.295 L 211.558 27.312 C 208.199 23.696 202.339 24.84 200.625 29.635 L 192.863 51.153 C 191.018 51.684 189.3 52.292 187.43 52.825 L 169.419 39.424 C 165.476 36.478 159.972 38.877 159.142 43.808 L 155.553 66.565 C 153.908 67.41 152.294 68.344 150.651 69.248 L 130.394 59.697 C 125.936 57.622 120.946 61.072 121.178 66.093 L 121.917 89.238 C 120.505 90.407 119.074 91.623 117.674 92.868 L 95.946 87.535 C 91.243 86.394 87.01 90.779 88.112 95.708 L 93.189 118.157 C 91.985 119.622 90.886 121.076 89.686 122.643 L 67.428 121.802 C 62.525 121.638 59.252 126.823 61.254 131.354 L 70.502 152.32 C 69.601 154.025 68.716 155.712 67.816 157.413 L 45.857 161.132 C 41.099 161.975 38.84 167.691 41.613 171.778 L 54.649 190.435 C 54.036 192.375 53.52 194.153 53.006 196.064 L 32.151 204.101 C 27.618 205.866 26.49 211.967 29.993 215.43 L 46.287 231.172 C 46.059 233.01 45.901 234.947 45.775 236.875 L 26.788 249.059 C 22.618 251.609 22.618 257.931 26.788 260.477 L 45.775 272.665 C 45.901 274.605 46.059 276.529 46.287 278.364 L 29.993 294.181 C 26.402 297.572 27.603 303.672 32.151 305.435 L 53.006 313.549 C 53.52 315.384 54.036 317.235 54.649 319.102 L 41.613 337.759 C 38.798 341.845 41.099 347.637 45.917 348.407 L 67.886 352.123 C 68.699 353.827 69.601 355.513 70.502 357.218 L 61.254 378.186 C 59.252 382.805 62.611 387.973 67.428 387.736 L 89.686 386.967 C 90.886 388.448 91.985 389.913 93.273 391.365 L 88.127 413.887 C 87.025 418.744 91.257 423.126 95.96 421.988 L 117.688 416.731 C 119.103 417.974 120.532 419.116 122.02 420.36 L 121.204 443.416 C 120.975 448.494 126.05 451.957 130.425 449.812 L 150.68 440.26 C 152.323 441.162 153.936 442.098 155.582 443.03 L 159.241 465.787 C 159.985 470.72 165.487 473.028 169.433 470.172 L 187.515 456.682 C 189.3 457.291 191.106 457.822 192.875 458.357 L 200.708 479.962 C 202.353 484.743 208.215 485.9 211.575 482.211 L 226.768 465.316 C 228.613 465.551 230.413 465.787 232.272 465.923 L 244.036 485.588 C 246.566 489.837 252.597 489.837 255.129 485.588 L 266.892 465.923 C 268.765 465.787 270.552 465.551 272.395 465.316 L 287.591 482.211 C 290.95 485.823 296.752 484.685 298.455 479.962 L 306.286 458.357 C 308.06 457.822 309.849 457.291 311.647 456.682 L 329.657 470.172 C 333.605 473.178 339.194 470.72 339.937 465.787 L 343.525 443.03 C 345.241 442.098 346.884 441.18 348.512 440.26 L 368.756 449.812 C 373.143 451.885 378.132 448.433 377.977 443.416 L 377.162 420.36 C 378.661 419.116 380.075 417.974 381.403 416.731 L 403.146 421.988 C 407.837 423.126 412.067 418.744 411.039 413.887 L 405.893 391.365 C 407.092 389.899 408.278 388.448 409.394 386.967 L 431.736 387.736 C 436.58 387.973 439.912 382.805 437.909 378.186 L 428.691 357.218 C 429.563 355.513 430.462 353.827 431.277 352.123 L 453.248 348.407 C 458.009 347.563 460.325 341.845 457.48 337.759 L 444.544 319.102 L 446.16 313.549 L 466.927 305.435 C 471.56 303.672 472.659 297.572 469.172 294.181 L 452.863 278.364 C 453.02 276.529 453.248 274.589 453.378 272.665 L 472.376 260.477 C 476.535 257.931 476.535 251.609 472.376 249.059 L 472.39 249.075 Z M 345.439 411.963 C 327.945 408.113 333.536 380.88 351.102 384.731 C 358.318 386.344 362.936 393.747 361.38 401.316 C 359.82 408.793 352.674 413.577 345.439 411.963 Z M 339.039 366.842 C 332.419 365.375 325.873 369.76 324.528 376.632 L 317.737 409.09 C 296.968 418.879 273.883 424.371 249.625 424.371 C 225.567 424.371 201.825 418.968 180.096 408.483 L 173.307 375.949 C 171.892 369.079 165.417 364.681 158.786 366.236 L 131.097 372.321 C 125.892 366.857 121.132 360.995 116.729 354.805 L 251.711 354.805 C 253.213 354.805 254.243 354.583 254.243 353.101 L 254.243 303.685 C 254.243 302.206 253.213 301.984 251.711 301.984 L 212.189 301.984 L 212.189 270.591 L 254.915 270.591 C 258.787 270.591 275.769 271.732 281.115 294.181 C 282.831 301.049 286.56 323.486 289.077 330.665 C 291.607 338.767 301.957 354.788 312.977 354.788 L 380.218 354.788 C 381.034 354.788 381.861 354.715 382.665 354.566 C 378.047 361.126 372.928 367.361 367.411 373.151 L 339.039 366.842 Z M 152.382 411.341 C 145.104 412.88 137.957 408.098 136.385 400.62 C 134.827 393.054 139.428 385.65 146.735 384.109 C 153.936 382.493 161.086 387.262 162.672 394.755 C 164.231 402.323 159.598 409.726 152.382 411.341 Z M 101.178 196.242 C 104.45 203.347 101.478 211.817 94.546 215.062 C 87.627 218.215 79.507 214.838 76.605 207.585 C 70.044 190.938 93.642 180.055 101.178 196.256 L 101.178 196.242 Z M 85.468 234.873 L 114.344 221.605 C 120.532 218.763 123.276 211.287 120.532 204.889 L 114.572 190.924 L 138.028 190.924 L 138.028 300.207 L 90.815 300.207 C 84.998 278.999 83.153 256.792 85.454 234.873 L 85.468 234.873 Z M 212.247 224.314 L 212.247 192.079 L 267.937 192.079 C 270.839 192.079 288.247 195.56 288.247 209.064 C 288.247 220.318 274.854 224.332 263.905 224.332 L 212.247 224.314 Z M 414.752 253.31 C 414.752 257.56 414.597 261.781 414.311 265.941 L 397.328 265.941 C 395.616 265.941 394.943 267.111 394.943 268.889 L 394.943 276.899 C 394.943 295.867 384.665 299.955 375.571 301.049 C 366.938 302.058 357.406 297.336 356.231 291.869 C 351.158 262.252 342.681 255.932 329.288 244.972 C 345.885 234.014 363.15 217.977 363.15 196.389 C 363.15 173.094 347.726 158.435 337.251 151.267 C 322.497 141.154 306.203 139.17 301.799 139.17 L 126.621 139.17 C 150.809 111.094 183.285 92.127 218.95 85.091 L 239.646 107.615 C 244.264 112.633 252.068 112.843 256.916 107.985 L 280.001 85.077 C 327.731 94.332 369.041 124.807 393.082 168.461 L 377.233 205.48 C 374.558 211.879 377.305 219.356 383.478 222.229 L 413.94 236.25 C 414.454 241.893 414.682 247.519 414.682 253.31 L 414.752 253.31 Z M 239.663 66.05 C 252.597 53.254 271.154 73.379 258.187 86.188 C 245.307 97.75 227.953 78.86 239.663 66.05 Z M 396.672 196.921 C 399.647 189.918 407.536 186.747 414.325 189.829 C 425.344 194.849 424.96 211.106 413.797 215.594 C 402.545 220.05 391.769 208.265 396.685 196.921 L 396.672 196.921 Z" style="fill: rgb(249, 249, 249);"/>
</svg>